<svg width="32" height="32" viewBox="0 0 32 32" fill="none" xmlns="http://www.w3.org/2000/svg">
<circle cx="15.6576" cy="15.6576" r="15.6576" fill="#7FA353"/>
<path fill-rule="evenodd" clip-rule="evenodd" d="M7.44043 11.5094C7.44043 11.0154 7.84441 10.615 8.34274 10.615H21.4263C21.9246 10.615 22.3286 11.0154 22.3286 11.5094V22.6905C22.3286 24.049 21.2177 25.1503 19.8472 25.1503H9.92179C8.55137 25.1503 7.44043 24.049 7.44043 22.6905V11.5094ZM18.0426 14.1929C17.6689 14.1929 17.3659 13.8925 17.3659 13.522V9.27323C17.3659 7.91471 16.2549 6.8134 14.8845 6.8134C13.5141 6.8134 12.4031 7.91471 12.4031 9.27323V13.522C12.4031 13.8925 12.1002 14.1929 11.7264 14.1929C11.3527 14.1929 11.0497 13.8925 11.0497 13.522V9.27323C11.0497 7.17369 12.7666 5.47168 14.8845 5.47168C17.0024 5.47168 18.7193 7.17369 18.7193 9.27323V13.522C18.7193 13.8925 18.4163 14.1929 18.0426 14.1929Z" fill="#E6E6E6"/>
<path d="M21.7916 20.4062C21.7916 20.2316 21.6474 20.09 21.4695 20.09C21.2916 20.09 21.1474 20.2316 21.1474 20.4062V22.3038H19.2148C19.0369 22.3038 18.8927 22.4454 18.8927 22.6201C18.8927 22.7947 19.0369 22.9363 19.2148 22.9363H21.1474V24.8339C21.1474 25.0086 21.2916 25.1502 21.4695 25.1502C21.6474 25.1502 21.7916 25.0086 21.7916 24.8339V22.9363H23.7242C23.9021 22.9363 24.0463 22.7947 24.0463 22.6201C24.0463 22.4454 23.9021 22.3038 23.7242 22.3038H21.7916V20.4062Z" fill="#C6C6C6" stroke="black" stroke-linecap="round"/>
</svg>
